<svg width="36" height="36" viewBox="0 0 36 36" fill="none" xmlns="http://www.w3.org/2000/svg">
<g clip-path="url(#clip0_26_831)">
<path d="M4.5 7.5C4.5 6.67157 5.17157 6 6 6H30C30.8284 6 31.5 6.67157 31.5 7.5C31.5 8.32843 30.8284 9 30 9H6C5.17157 9 4.5 8.32843 4.5 7.5ZM4.5 18C4.5 17.1716 5.17157 16.5 6 16.5H30C30.8284 16.5 31.5 17.1716 31.5 18C31.5 18.8284 30.8284 19.5 30 19.5H6C5.17157 19.5 4.5 18.8284 4.5 18ZM4.5 28.5C4.5 27.6716 5.17157 27 6 27H30C30.8284 27 31.5 27.6716 31.5 28.5C31.5 29.3284 30.8284 30 30 30H6C5.17157 30 4.5 29.3284 4.5 28.5Z" fill="#222222"/>
</g>
<defs>
<clipPath id="clip0_26_831">
<rect width="36" height="36" fill="white"/>
</clipPath>
</defs>
</svg>
