<svg width="23" height="23" viewBox="0 0 23 23" fill="none" xmlns="http://www.w3.org/2000/svg">
<path d="M11.546 9.454L19.9395 1.0605C20.5252 0.474802 21.4748 0.474802 22.0605 1.0605C22.6462 1.6462 22.6462 2.5958 22.0605 3.1815L13.667 11.575L22.0605 19.9685C22.6462 20.5542 22.6462 21.5038 22.0605 22.0895C21.4748 22.6752 20.5252 22.6752 19.9395 22.0895L11.546 13.696L3.1815 22.0605C2.5958 22.6462 1.6462 22.6462 1.0605 22.0605C0.474803 21.4748 0.474803 20.5252 1.0605 19.9395L9.425 11.575L1.0605 3.21051C0.474803 2.62481 0.474802 1.67521 1.0605 1.08951C1.6462 0.50381 2.5958 0.50381 3.1815 1.08951L11.546 9.454Z" fill="#222222"/>
</svg>
