<svg width="7" height="8" viewBox="0 0 7 8" fill="none" xmlns="http://www.w3.org/2000/svg">
<path d="M0.681222 0.073664C0.615308 0.0296869 0.538701 0.00441075 0.459558 0.000526716C0.380415 -0.00335731 0.301701 0.0142961 0.231797 0.0516079C0.161894 0.0889196 0.10342 0.144492 0.0626007 0.212407C0.0217816 0.280322 0.000146527 0.358036 0 0.437274V7.56273C0.000146527 7.64196 0.0217816 7.71968 0.0626007 7.78759C0.10342 7.85551 0.161894 7.91108 0.231797 7.94839C0.301701 7.9857 0.380415 8.00336 0.459558 7.99947C0.538701 7.99559 0.615308 7.97031 0.681222 7.92634L6.02476 4.36471C6.08485 4.32472 6.13413 4.2705 6.16822 4.20687C6.2023 4.14324 6.22014 4.07218 6.22014 4C6.22014 3.92782 6.2023 3.85676 6.16822 3.79313C6.13413 3.7295 6.08485 3.67528 6.02476 3.63529L0.681222 0.073664Z" fill="white"/>
</svg>
