<svg width="24" height="24" viewBox="0 0 24 24" fill="none" xmlns="http://www.w3.org/2000/svg">
<path fill-rule="evenodd" clip-rule="evenodd" d="M18.964 16.8648C21.7555 12.8593 21.3648 7.30911 17.7917 3.73608C13.78 -0.275666 7.27566 -0.275665 3.26392 3.73608C-0.747835 7.74783 -0.747835 14.2522 3.26392 18.2639C7.05905 22.0591 13.0849 22.264 17.1209 18.8787L21.1344 22.8922C21.667 23.4248 22.5304 23.4248 23.0629 22.8922C23.5955 22.3597 23.5955 21.4963 23.0629 20.9638L18.964 16.8648ZM15.6704 5.8574C18.5106 8.69758 18.5106 13.3024 15.6704 16.1426C12.8302 18.9828 8.22541 18.9828 5.38524 16.1426C2.54506 13.3024 2.54506 8.69758 5.38524 5.8574C8.22541 3.01723 12.8302 3.01723 15.6704 5.8574Z" fill="#DDDDDD"/>
</svg>
